PathFileType	4	(X/Y/Z)	C:/Users/opensim2020/Desktop/walking_exp_matlab/subject03_walking12_straight_01.trc																																																																																																																																														
DataRate	CameraRate	NumFrames	NumMarkers	Units	OrigDataRate	OrigDataStartFrame	OrigNumFrames																																																																																																																																										
100	100	5	48	mm	100	739	211																																																																																																																																										
Frame#	Time	LFHD			RFHD			LBHD			RBHD			C7			T10			CLAV			STRN			RBAK			LSHO			LUPA			LELB			LFRM			LWRA			LWRB			LFIN			RSHO			RUPA			RELB			RFRM			RWRA			RWRB			RFIN			LASI			RASI			LPSI			RPSI			LTHI			LKNE			LTIB			LANK			LHEE			LTOE			RTHI			RKNE			RTIB			RANK			RHEE			RTOE			*39			*40			*41			*42			*43			*44			*45			*46			*47		
		X1	Y1	Z1	X2	Y2	Z2	X3	Y3	Z3	X4	Y4	Z4	X5	Y5	Z5	X6	Y6	Z6	X7	Y7	Z7	X8	Y8	Z8	X9	Y9	Z9	X10	Y10	Z10	X11	Y11	Z11	X12	Y12	Z12	X13	Y13	Z13	X14	Y14	Z14	X15	Y15	Z15	X16	Y16	Z16	X17	Y17	Z17	X18	Y18	Z18	X19	Y19	Z19	X20	Y20	Z20	X21	Y21	Z21	X22	Y22	Z22	X23	Y23	Z23	X24	Y24	Z24	X25	Y25	Z25	X26	Y26	Z26	X27	Y27	Z27	X28	Y28	Z28	X29	Y29	Z29	X30	Y30	Z30	X31	Y31	Z31	X32	Y32	Z32	X33	Y33	Z33	X34	Y34	Z34	X35	Y35	Z35	X36	Y36	Z36	X37	Y37	Z37	X38	Y38	Z38	X39	Y39	Z39	X40	Y40	Z40	X41	Y41	Z41	X42	Y42	Z42	X43	Y43	Z43	X44	Y44	Z44	X45	Y45	Z45	X46	Y46	Z46	X47	Y47	Z47	X48	Y48	Z48
																																																																																																																																																	
185	1.84	925.72888	1622.33691	-1049.46753	890.1825	1621.85962	-921.45514	802.37708	1577.07678	-1080.29199	772.47089	1576.21216	-953.24921	761.43915	1412.2168	-1028.91907	739.71552	1098.45081	-1029.42981	883.92499	1340.55505	-1010.48846	936.14282	1177.84387	-1013.89459	703.04724	1231.92004	-943.9212	859.2851	1378.60986	-1170.26111	874.66364	1184.26196	-1247.99609	892.84155	1062.74646	-1262.46167	927.46802	936.5769	-1259.59558	945.30719	818.52832	-1230.57385	937.45862	825.92035	-1285.72021	956.94086	744.1524	-1277.68567	812.31287	1358.92957	-858.25482	803.7934	1134.50732	-791.80554	818.04248	1021.85889	-780.922	831.76599	885.43433	-780.78821	863.8891	790.85809	-815.38989	828.28101	784.79218	-775.26263	854.41504	714.82813	-783.68164	909.82361	944.76288	-1141.9115	900.18237	933.56738	-904.67303	745.91693	966.88965	-1096.35632	741.91199	961.67499	-948.02332	841.61346	642.8432	-1187.73145	832.40778	466.8576	-1147.09863	760.47974	280.24432	-1152.55945	721.39178	72.02948	-1113.0116	677.04144	40.14083	-1077.52026	870.92438	29.6545	-1082.17163	920.07312	642.26587	-869.94617	1000.422	481.86932	-901.21179	911.4668	310.67465	-909.52283	815.10706	120.88513	-963.18506	765.69696	103.48241	-1019.47357	931.29749	45.03529	-968.94598	831.51508	1679.15588	-1020.0235	NaN	NaN	NaN	NaN	NaN	NaN	NaN	NaN	NaN	NaN	NaN	NaN	NaN	NaN	NaN	NaN	NaN	NaN	NaN	NaN	NaN	NaN	NaN	NaN
186	1.85	938.7995	1621.61658	-1047.41516	902.91595	1620.57007	-919.46857	815.51538	1576.50989	-1078.75562	785.2923	1575.08191	-951.85181	774.25488	1411.4364	-1027.88953	752.41357	1097.64648	-1028.72913	896.75873	1339.63452	-1009.55573	948.8764	1176.90649	-1013.34564	715.66022	1230.87378	-943.60345	871.98132	1378.11365	-1169.17932	889.86273	1184.5647	-1247.52551	911.0647	1063.53809	-1262.06604	950.2016	938.86981	-1258.49243	972.41455	821.87219	-1228.16064	963.9245	828.19531	-1283.20056	987.53143	747.93439	-1274.49084	824.84448	1357.69055	-857.315	813.3623	1133.26331	-791.33447	825.81445	1020.41772	-780.65302	837.39862	883.61218	-781.06805	868.30157	788.83447	-815.4267	832.28943	783.18585	-775.65924	857.46759	712.93573	-783.76294	921.60468	943.77777	-1141.8811	913.47046	932.89197	-904.51971	757.95233	966.12811	-1095.0448	754.74109	960.43573	-947.04077	849.06061	642.67255	-1186.4231	836.14209	466.61206	-1146.87292	762.32123	280.90994	-1151.73193	721.68213	72.8083	-1112.23999	677.33234	41.0627	-1076.27637	871.23242	29.72134	-1082.43103	936.37213	642.61505	-869.33826	1017.90143	483.2746	-901.70386	938.07349	306.77304	-909.90479	854.84045	110.78282	-964.13367	806.72357	90.11521	-1021.01459	975.60052	42.67689	-968.88556	844.55658	1678.34888	-1018.02759	NaN	NaN	NaN	NaN	NaN	NaN	NaN	NaN	NaN	NaN	NaN	NaN	NaN	NaN	NaN	NaN	NaN	NaN	NaN	NaN	NaN	NaN	NaN	NaN
187	1.86	951.82855	1620.65576	-1045.3479	915.6217	1619.10266	-917.47192	828.62	1575.68188	-1077.16455	798.01251	1573.71619	-950.30127	787.23358	1410.19141	-1026.47864	765.16595	1096.52344	-1027.88721	909.60016	1338.49939	-1008.521	961.63348	1175.70496	-1012.78113	728.38654	1229.57898	-943.14642	884.61487	1377.37598	-1168.04907	905.13904	1184.70398	-1247.01978	929.15076	1064.26929	-1261.88611	972.6673	941.09833	-1257.16785	999.51849	825.51129	-1225.63745	990.55762	830.80103	-1280.69067	1017.51801	751.76349	-1270.96423	837.41608	1356.1543	-856.30371	823.16516	1131.84314	-790.77545	833.90576	1018.82269	-780.30762	843.37616	881.83655	-781.03583	872.96631	786.70782	-815.55048	836.73297	781.43982	-775.99152	860.9245	710.93829	-784.16846	933.3017	942.58948	-1141.81824	926.88562	931.99841	-904.36353	769.98047	965.10358	-1093.68091	767.46368	959.07501	-945.84387	856.49731	642.25531	-1185.28479	840.32709	466.26016	-1146.42761	764.30438	281.58533	-1150.99475	722.00403	73.60235	-1111.46582	677.58051	42.22931	-1075.2594	871.45563	29.60967	-1082.55969	952.41437	642.86835	-868.60779	1034.37048	484.0481	-901.98285	964.25739	302.92841	-910.21405	895.28754	101.17828	-965.09119	848.69421	77.87198	-1022.36652	1019.94006	40.96349	-968.72357	857.50079	1677.2749	-1015.90497	NaN	NaN	NaN	NaN	NaN	NaN	NaN	NaN	NaN	NaN	NaN	NaN	NaN	NaN	NaN	NaN	NaN	NaN	NaN	NaN	NaN	NaN	NaN	NaN
188	1.87	964.84869	1619.53259	-1043.24402	928.31433	1617.4574	-915.44092	841.66553	1574.60901	-1075.52612	810.82758	1572.17944	-948.70197	800.15845	1408.92273	-1025.24402	777.90814	1095.10632	-1026.91638	922.5459	1337.15015	-1007.43408	974.47284	1174.2998	-1012.21332	741.23248	1227.99084	-942.58032	897.22723	1376.30054	-1166.72839	920.34845	1184.68408	-1246.37573	947.11761	1064.86206	-1261.48633	995.05652	943.44952	-1255.83789	1026.45447	829.44818	-1223.03662	1016.91754	833.56451	-1278.02112	1047.09937	755.78326	-1267.151	850.10626	1354.41895	-855.18243	833.2934	1130.27917	-790.13544	842.32013	1017.04199	-779.94348	849.74255	879.94006	-781	877.92242	784.49146	-815.74249	841.50989	779.4552	-776.39923	864.64172	708.81848	-784.7804	945.23492	941.30505	-1141.67285	940.46173	930.94513	-904.12866	782.14172	963.77185	-1092.3363	780.68262	957.44604	-944.57196	864.02087	641.69318	-1184.22485	845.0802	465.74469	-1145.85156	766.75208	282.12689	-1150.10083	722.41827	74.48685	-1110.55811	677.883	43.34051	-1074.18347	871.67755	29.37332	-1082.60742	968.09442	642.69159	-867.7854	1049.92859	484.19684	-901.97131	989.89526	299.07452	-910.42981	936.02686	92.80042	-966.02435	891.52936	67.05843	-1023.72742	1064.17261	39.84864	-968.43958	870.41986	1676.02136	-1013.82605	NaN	NaN	NaN	NaN	NaN	NaN	NaN	NaN	NaN	NaN	NaN	NaN	NaN	NaN	NaN	NaN	NaN	NaN	NaN	NaN	NaN	NaN	NaN	NaN
189	1.88	977.82214	1618.2561	-1041.12549	941.05328	1615.68042	-913.43317	854.78583	1573.43518	-1073.88855	823.59119	1570.43884	-947.17468	813.14319	1407.5	-1023.94739	790.64862	1093.58826	-1025.78967	935.52191	1335.58716	-1006.28949	987.32129	1172.7085	-1011.65704	754.2157	1226.24109	-941.81085	909.82715	1375.1571	-1165.52612	935.47314	1184.45288	-1245.62427	964.96368	1065.17249	-1261.04138	1017.07001	945.75806	-1254.31482	1053.25586	833.68463	-1220.36597	1043.01855	836.54828	-1275.37256	1076.63562	760.45978	-1263.5415	862.98663	1352.44678	-854.01031	843.66248	1128.51697	-789.3891	851.12042	1015.13574	-779.45398	856.42816	877.9024	-780.91498	883.4903	782.16687	-815.60162	846.06244	777.71606	-776.45685	868.61578	706.50928	-785.32971	956.57086	939.6449	-1141.65601	954.45599	929.80811	-903.84399	794.35175	962.12842	-1090.79663	793.86401	955.58752	-943.12823	872.07446	640.9538	-1183.20715	850.48438	465.02188	-1145.10669	769.64056	282.64832	-1149.00134	722.85663	75.06816	-1108.99329	678.20215	44.59351	-1072.91248	871.92413	29.17937	-1082.59766	983.49292	642.12903	-866.87122	1064.62817	483.68265	-901.68774	1015.06317	295.34564	-910.43323	977.00854	85.56009	-966.83594	934.94098	57.85185	-1025.14465	1108.03601	39.48488	-968.15222	883.29675	1674.5791	-1011.70239	NaN	NaN	NaN	NaN	NaN	NaN	NaN	NaN	NaN	NaN	NaN	NaN	NaN	NaN	NaN	NaN	NaN	NaN	NaN	NaN	NaN	NaN	NaN	NaN
